<?xml version="1.0" encoding="utf-8"?>
<svg id="master-artboard" viewBox="0 0 84.49999237060547 36" version="1.1" xmlns="http://www.w3.org/2000/svg" x="0px" y="0px" style="enable-background:new 0 0 1400 980;" width="84.49999237060547px" height="36px"><rect id="ee-background" x="0" y="0" width="84.49999237060547" height="36" style="fill: white; fill-opacity: 0; pointer-events: none;"/><g transform="matrix(1.000000238418579, 0, 0, 1.000000238418579, -0.9903607368469238, 0)"><rect id="rect-3" x="0" y="0" width="90.980712890625" height="21" style="fill: white; fill-opacity: 0; pointer-events: none;"/><g transform="matrix(1.0050251256281406, 0, 0, 1.0050251256281406, -0.000002023874451140273, 0.11474164167241341)"><path d="M 0 0 H 99.5 V 20.666666 H 0 V 0 Z" id="rect-2" style="fill: white; fill-opacity: 0; pointer-events: none;"/><g transform="matrix(0.9938428401947021, 0, 0, 0.9938428401947021, 0, -0.05188089609146118)"><path d="M 0 0 H 103.973534 V 20.563705 H 0 V 0 Z" id="rect-1" style="fill: white; fill-opacity: 0; pointer-events: none;"/><path d="M 58.45878219604492 16.8700008392334 L 60.60878372192383 16.8700008392334 L 54.42878341674805 34 L 52.45878219604492 34 L 46.318782806396484 16.8700008392334 L 48.42878341674805 16.8700008392334 L 52.36878204345703 27.950000762939453 C 52.82211685180664 29.22333335876465 53.1821174621582 30.463333129882812 53.44878387451172 31.670000076293945 C 53.728782653808594 30.40333366394043 54.09545135498047 29.139999389648438 54.54878234863281 27.880001068115234 L 58.45878219604492 16.8700008392334 Z" transform="matrix(0.9956659674644469, 0, 0, 0.9956659674644469, -5.5246997358021765, -14.996778488159178)" style="fill: rgb(51, 51, 51); white-space: pre; color: rgb(51, 51, 51); stroke: rgb(0, 0, 0); stroke-width: 1;"/><path d="M 81.90999603271484 34 L 79.7699966430664 28.549999237060547 L 72.90999603271484 28.549999237060547 L 70.79999542236328 34 L 68.77999877929688 34 L 75.54999542236328 16.799999237060547 L 77.22999572753906 16.799999237060547 L 83.97000122070312 34 L 81.90999603271484 34 M 79.1500015258789 26.760000228881836 L 77.15999603271484 21.450000762939453 C 76.9000015258789 20.77666664123535 76.63333129882812 19.953332901000977 76.36000061035156 18.979999542236328 C 76.1866683959961 19.726665496826172 75.94000244140625 20.549999237060547 75.6199951171875 21.450000762939453 L 73.61000061035156 26.760000228881836 L 79.1500015258789 26.760000228881836 Z" transform="matrix(0.9983202219009399, 0, 0, 0.9983202219009399, -13.975393819969657, -15.030284881591797)" style="fill: rgb(51, 51, 51); white-space: pre; color: rgb(51, 51, 51); stroke: rgb(0, 0, 0); stroke-width: 1;"/><path d="M 38.41967010498047 58.52058029174805 L 39.567569732666016 58.52058792114258 L 39.567569732666016 66.36000061035156 C 38.667572021484375 66.64666748046875 37.7475700378418 66.86333465576172 36.80757141113281 67.01000213623047 C 35.86756896972656 67.15666961669922 34.78090286254883 67.2300033569336 33.547569274902344 67.2300033569336 C 30.95423698425293 67.2300033569336 28.93423843383789 66.45999908447266 27.487571716308594 64.91999816894531 C 26.040904998779297 63.380001068115234 25.317569732666016 61.21666717529297 25.317569732666016 58.43000030517578 C 25.317569732666016 56.650001525878906 25.677570343017578 55.09000015258789 26.397571563720703 53.75 C 27.110904693603516 52.40999984741211 28.14090347290039 51.38666534423828 29.487571716308594 50.68000030517578 C 30.82756996154785 49.97333526611328 32.400901794433594 49.62000274658203 34.20757293701172 49.62000274658203 C 36.034236907958984 49.62000274658203 37.737571716308594 49.9566650390625 39.317569732666016 50.62999725341797 L 38.53757095336914 52.38999938964844 C 36.99090576171875 51.72999954223633 35.50423812866211 51.400001525878906 34.077571868896484 51.400001525878906 C 31.990903854370117 51.400001525878906 30.360904693603516 52.02333450317383 29.187570571899414 53.27000045776367 C 28.014236450195312 54.51000213623047 27.427570343017578 56.22999954223633 27.427570343017578 58.43000030517578 C 27.427570343017578 60.74333190917969 27.994237899780273 62.5 29.12757110595703 63.70000076293945 C 30.25423812866211 64.8933334350586 31.910903930664062 65.48999786376953 34.097572326660156 65.48999786376953 C 35.284236907958984 65.48999786376953 36.444236755371094 65.35333251953125 37.577571868896484 65.08000183105469 L 37.577571868896484 59.79999923706055 L 37.41850280761719 58.63197326660156 L 38.41967010498047 58.52058029174805 Z" transform="matrix(1, 0, 0, 1, -22.835223626929757, -48.13117599487305)" style="fill: rgb(51, 51, 51); white-space: pre; color: rgb(51, 51, 51); stroke: rgb(0, 0, 0); stroke-width: 1;"/><path d="M 76.81212615966797 24.389938354492188" style="fill: rgb(51, 51, 51); fill-opacity: 1; stroke: rgb(0, 0, 0); stroke-opacity: 1; stroke-width: 2; paint-order: stroke;" transform="matrix(1, 0, 0, 1, 0, 0)"/><path d="M 88.0677719116211 10.388432502746582" style="fill: rgb(51, 51, 51); fill-opacity: 1; stroke: rgb(0, 0, 0); stroke-opacity: 1; stroke-width: 0; paint-order: stroke;"/><path d="M 88.0677719116211 15.727973937988281 L 89.06893157958984 15.727973937988281" style="fill: rgb(51, 51, 51); fill-opacity: 1; stroke: rgb(0, 0, 0); stroke-opacity: 1; stroke-width: 0; paint-order: stroke;"/><g transform="matrix(0.03942136839032173, 0, 0, 0.03942136839032173, -35.69832229614258, -24.377407598656177)"><g>
	
</g><g transform="matrix(3.8017126559948453, 0, 0, 3.8017126559948453, 1300.6093757789806, 512.4888064175526)">
	<g>
		<path d="M 255.998 34.951 C 134.141 34.951 35.002999999999986 134.107 35.002999999999986 255.987 C 35.002999999999986 377.864 134.141 477.019 255.998 477.019 C 377.85699999999997 477.019 476.99699999999996 377.865 476.99699999999996 255.987 C 476.997 134.107 377.857 34.951 255.998 34.951 Z M 50.003 255.987 C 50.003 145.528 137.363 55.10300000000001 246.606 50.17400000000001 L 207.65699999999998 225.847 L 71.92 348.392 C 57.909 320.584 50.003 289.194 50.003 255.987 Z M 248.493 110.959 L 248.493 241.279 L 136.096 310.661 L 219.486 235.376 C 220.35299999999998 234.59300000000002 221.022 233.622 221.444 232.544 C 221.58499999999998 232.185 221.69799999999998 231.81300000000002 221.78199999999998 231.43300000000002 L 248.493 110.959 Z M 255.998 462.019 C 182.08999999999997 462.019 117.15899999999999 422.88 80.80599999999998 364.243 L 194.75099999999998 321.099 C 198.62399999999997 319.632 237.53897399902343 299.1312470703125 236.0719739990234 295.2572470703125 C 234.6049739990234 291.38324707031245 193.313 305.60499999999996 189.438 307.07099999999997 L 140.37099999999998 325.65 L 256 254.273 L 371.651 325.663 L 258.65 282.875 C 256.93699999999995 282.228 255.04999999999998 282.228 253.337 282.875 L 219.66699999999997 295.624 C 215.79399999999998 297.091 178.03416210937496 321.05711547851564 179.50116210937497 324.93111547851566 C 180.968162109375 328.8051154785157 221.10499999999996 311.119 224.97999999999996 309.65200000000004 L 255.99399999999997 297.908 L 431.192 364.246 C 394.837 422.881 329.906 462.019 255.998 462.019 Z M 304.344 225.847 L 296.403 190.025 C 295.507 185.982 291.497 183.43 287.458 184.326 C 283.41400000000004 185.22199999999998 280.862 189.22799999999998 281.759 193.272 L 290.15200000000004 231.132 C 290.434 232.713 291.21700000000004 234.216 292.50200000000007 235.376 L 375.8620000000001 310.635 L 263.5080000000001 241.279 L 263.5080000000001 111.022 L 265.7560000000001 121.162 C 265.7770000000001 121.256 265.8080000000001 121.34500000000001 265.8320000000001 121.43700000000001 L 274.9660000000001 162.63400000000001 C 275.86200000000014 166.67700000000002 298.3509826660156 261.63990783691406 297.77248071289074 215.6930769042969 C 297.1940002441406 169.74623107910156 290.5070000000001 163.43100000000004 289.6100000000001 159.38700000000003 L 265.395 50.174 C 374.637 55.105 461.99699999999996 145.529 461.99699999999996 255.987 C 461.99699999999996 289.193 454.09099999999995 320.584 440.0799999999999 348.39099999999996 L 304.344 225.847 Z" style="stroke: rgb(0, 0, 0); stroke-width: 3;" transform="matrix(0.2788119098268394, 0, 0, 0.2788119098268394, 25.24372902516438, 25.206245093704535)"/>
	</g>
</g><g>
</g><g>
</g><g>
</g><g>
</g><g>
</g><g>
</g><g>
</g><g>
</g><g>
</g><g>
</g><g>
</g><g>
</g><g>
</g><g>
</g><g>
</g></g></g><path d="M 99.002197265625 44.58912658691406 C 99.002197265625 46.22246170043945 98.5888671875 47.67579650878906 97.76219940185547 48.949127197265625 C 96.92886352539062 50.21579360961914 95.7322006225586 51.20246124267578 94.17219543457031 51.90913009643555 C 92.60552978515625 52.609127044677734 90.76886749267578 52.959129333496094 88.66220092773438 52.959129333496094 C 86.90886688232422 52.959129333496094 85.43553161621094 52.83579635620117 84.24220275878906 52.58913040161133 C 83.05553436279297 52.34246063232422 81.8155288696289 51.91246032714844 80.52220153808594 51.299129486083984 L 80.52220153808594 44.949127197265625 C 81.8822021484375 45.64246368408203 83.29886627197266 46.185794830322266 84.77220153808594 46.57912826538086 C 86.2388687133789 46.97246170043945 87.58553314208984 47.16912841796875 88.81219482421875 47.16912841796875 C 89.87220001220703 47.16912841796875 90.64886474609375 46.98579406738281 91.14219665527344 46.6191291809082 C 91.63552856445312 46.25246047973633 91.8822021484375 45.77912902832031 91.8822021484375 45.199127197265625 C 91.8822021484375 44.83912658691406 91.78219604492188 44.5224609375 91.58219909667969 44.24913024902344 C 91.3822021484375 43.982460021972656 91.06219482421875 43.709129333496094 90.62220001220703 43.42913055419922 C 90.18219757080078 43.15579605102539 89.01219940185547 42.59246063232422 87.11219787597656 41.73912811279297 C 85.39219665527344 40.95246124267578 84.1021957397461 40.19246292114258 83.24220275878906 39.459129333496094 C 82.3822021484375 38.72579574584961 81.74552917480469 37.88579559326172 81.33219909667969 36.93912887573242 C 80.91220092773438 35.98579406738281 80.70220184326172 34.859130859375 80.70220184326172 33.55912780761719 C 80.70220184326172 31.132461547851562 81.5888671875 29.23912811279297 83.36219787597656 27.87912940979004 C 85.12886810302734 26.519128799438477 87.55886840820312 25.839128494262695 90.6521987915039 25.839128494262695 C 93.37886810302734 25.839128494262695 96.16220092773438 26.46912956237793 99.002197265625 27.729127883911133 L 96.82219696044922 33.23912811279297 C 94.35552978515625 32.105796813964844 92.22553253173828 31.53912925720215 90.43219757080078 31.53912925720215 C 89.50553131103516 31.53912925720215 88.83219909667969 31.70246124267578 88.41220092773438 32.02912902832031 C 87.99220275878906 32.34912872314453 87.78219604492188 32.752464294433594 87.78219604492188 33.23912811279297 C 87.78219604492188 33.752464294433594 88.04886627197266 34.215797424316406 88.58219909667969 34.629127502441406 C 89.12220001220703 35.035797119140625 90.57553100585938 35.77912902832031 92.94219970703125 36.859130859375 C 95.21553039550781 37.88579559326172 96.7955322265625 38.98579406738281 97.68219757080078 40.15913009643555 C 98.56219482421875 41.332462310791016 99.002197265625 42.80912780761719 99.002197265625 44.58912658691406 ZM 101.78314208984375 49.59912872314453 C 101.78314208984375 48.492462158203125 102.1131362915039 47.639129638671875 102.77313995361328 47.039127349853516 C 103.42647552490234 46.43912887573242 104.37980651855469 46.139129638671875 105.63314056396484 46.139129638671875 C 106.81980895996094 46.139129638671875 107.73313903808594 46.43912887573242 108.37313842773438 47.039127349853516 C 109.01313781738281 47.639129638671875 109.33313751220703 48.492462158203125 109.33313751220703 49.59912872314453 C 109.33313751220703 50.685794830322266 109.00314331054688 51.53246307373047 108.3431396484375 52.139129638671875 C 107.68980407714844 52.74579620361328 106.78646850585938 53.049129486083984 105.63314056396484 53.049129486083984 C 104.43980407714844 53.049129486083984 103.49980926513672 52.74913024902344 102.81314086914062 52.14912796020508 C 102.12647247314453 51.549129486083984 101.78314208984375 50.699127197265625 101.78314208984375 49.59912872314453 ZM 129.95664978027344 52.59912872314453 L 128.65664672851562 47.65913009643555 L 120.0866470336914 47.65913009643555 L 118.74665069580078 52.59912872314453 L 110.9166488647461 52.59912872314453 L 119.52664947509766 26.109128952026367 L 129.03665161132812 26.109128952026367 L 137.75665283203125 52.59912872314453 L 129.95664978027344 52.59912872314453 M 127.17665100097656 41.80912780761719 L 126.03665161132812 37.479129791259766 C 125.77664947509766 36.5124626159668 125.45664978027344 35.26579284667969 125.07664489746094 33.73912811279297 C 124.69664764404297 32.21246337890625 124.44664764404297 31.119129180908203 124.32664489746094 30.459129333496094 C 124.21998596191406 31.07246208190918 124.00665283203125 32.082462310791016 123.6866455078125 33.48912811279297 C 123.36664581298828 34.89579772949219 122.65998077392578 37.66912841796875 121.566650390625 41.80912780761719 L 127.17665100097656 41.80912780761719 ZM 139.30177307128906 49.59912872314453 C 139.30177307128906 48.492462158203125 139.63177490234375 47.639129638671875 140.29176330566406 47.039127349853516 C 140.94509887695312 46.43912887573242 141.8984375 46.139129638671875 143.15176391601562 46.139129638671875 C 144.33843994140625 46.139129638671875 145.25177001953125 46.43912887573242 145.8917694091797 47.039127349853516 C 146.53176879882812 47.639129638671875 146.85177612304688 48.492462158203125 146.85177612304688 49.59912872314453 C 146.85177612304688 50.685794830322266 146.5217742919922 51.53246307373047 145.8617706298828 52.139129638671875 C 145.20843505859375 52.74579620361328 144.3050994873047 53.049129486083984 143.15176391601562 53.049129486083984 C 141.95843505859375 53.049129486083984 141.0184326171875 52.74913024902344 140.33177185058594 52.14912796020508 C 139.6450958251953 51.549129486083984 139.30177307128906 50.699127197265625 139.30177307128906 49.59912872314453 Z" transform="matrix(0.18845106661319733, 0, 0, 0.18845106661319733, 57.04130172729492, 9.555134773254395)" style="fill: rgb(51, 51, 51); white-space: pre; color: rgb(51, 51, 51);"/></g><path d="M 12.199043273925781 10.314254760742188" style="fill-opacity: 1; stroke: rgb(0, 0, 0); stroke-opacity: 1; stroke-width: 10; paint-order: fill;"/></g><path d="M 27.36592674255371 43.18871307373047 C 27.36592674255371 44.44871139526367 26.91592788696289 45.43871307373047 26.015926361083984 46.15871047973633 C 25.10926055908203 46.885379791259766 23.845928192138672 47.24871063232422 22.225927352905273 47.24871063232422 C 20.739259719848633 47.24871063232422 19.425926208496094 46.968711853027344 18.285926818847656 46.40871047973633 L 18.285926818847656 43.65871047973633 C 19.225927352905273 44.078712463378906 20.022594451904297 44.3753776550293 20.675926208496094 44.54871368408203 C 21.322593688964844 44.7220458984375 21.91592788696289 44.808712005615234 22.4559268951416 44.808712005615234 C 23.10926055908203 44.808712005615234 23.60926055908203 44.68537902832031 23.9559268951416 44.43871307373047 C 24.302593231201172 44.192047119140625 24.475927352905273 43.822044372558594 24.475927352905273 43.328712463378906 C 24.475927352905273 43.05537796020508 24.399261474609375 42.81204605102539 24.245927810668945 42.59871292114258 C 24.092594146728516 42.385379791259766 23.86592674255371 42.182044982910156 23.565927505493164 41.988712310791016 C 23.272594451904297 41.78871154785156 22.67259407043457 41.4720458984375 21.765926361083984 41.03871154785156 C 20.912593841552734 40.638710021972656 20.272594451904297 40.25537872314453 19.845928192138672 39.888710021972656 C 19.419260025024414 39.52204513549805 19.079259872436523 39.092044830322266 18.825927734375 38.59871292114258 C 18.572593688964844 38.11204528808594 18.445926666259766 37.53871154785156 18.445926666259766 36.87871170043945 C 18.445926666259766 35.64537811279297 18.862594604492188 34.6787109375 19.695926666259766 33.97871398925781 C 20.535926818847656 33.27204513549805 21.692594528198242 32.9187126159668 23.16592788696289 32.9187126159668 C 23.892593383789062 32.9187126159668 24.58259391784668 33.002044677734375 25.23592758178711 33.1687126159668 C 25.89592742919922 33.342044830322266 26.585926055908203 33.58538055419922 27.305927276611328 33.898712158203125 L 26.345928192138672 36.19871139526367 C 25.605926513671875 35.89204406738281 24.99259376525879 35.6787109375 24.50592803955078 35.558712005615234 C 24.01926040649414 35.43871307373047 23.539260864257812 35.37871170043945 23.065927505493164 35.37871170043945 C 22.50592803955078 35.37871170043945 22.079259872436523 35.50871276855469 21.785926818847656 35.76871109008789 C 21.48592758178711 36.02871322631836 21.335927963256836 36.36871337890625 21.335927963256836 36.78871154785156 C 21.335927963256836 37.04871368408203 21.39592742919922 37.2753791809082 21.515926361083984 37.468711853027344 C 21.635927200317383 37.662044525146484 21.829259872436523 37.84871292114258 22.095928192138672 38.02871322631836 C 22.355926513671875 38.21537780761719 22.979259490966797 38.54204559326172 23.965927124023438 39.00871276855469 C 25.272594451904297 39.635379791259766 26.16592788696289 40.25871276855469 26.64592742919922 40.87871170043945 C 27.125926971435547 41.50537872314453 27.36592674255371 42.2753791809082 27.36592674255371 43.18871307373047 ZM 57.450225830078125 47.058712005615234 L 49.42022705078125 47.058712005615234 L 49.42022705078125 33.11871337890625 L 57.450225830078125 33.11871337890625 L 57.450225830078125 35.53871154785156 L 52.380226135253906 35.53871154785156 L 52.380226135253906 38.59871292114258 L 57.10022735595703 38.59871292114258 L 57.10022735595703 41.01871109008789 L 52.380226135253906 41.01871109008789 L 52.380226135253906 44.61871337890625 L 57.450225830078125 44.61871337890625 L 57.450225830078125 47.058712005615234 ZM 82.84564971923828 39.308712005615234 L 83.795654296875 39.308712005615234 C 84.73564910888672 39.308712005615234 85.42565155029297 39.15204620361328 85.86565399169922 38.83871078491211 C 86.31231689453125 38.5253791809082 86.53565216064453 38.035377502441406 86.53565216064453 37.36871337890625 C 86.53565216064453 36.708709716796875 86.3089828491211 36.238712310791016 85.85565185546875 35.958709716796875 C 85.4023208618164 35.6787109375 84.69898223876953 35.53871154785156 83.74565124511719 35.53871154785156 L 82.84564971923828 35.53871154785156 L 82.84564971923828 39.308712005615234 M 82.84564971923828 41.70871353149414 L 82.84564971923828 47.058712005615234 L 79.88565063476562 47.058712005615234 L 79.88565063476562 33.11871337890625 L 83.95565032958984 33.11871337890625 C 85.84898376464844 33.11871337890625 87.24898529052734 33.46204376220703 88.15565490722656 34.148712158203125 C 89.06898498535156 34.842044830322266 89.52565002441406 35.888710021972656 89.52565002441406 37.28871154785156 C 89.52565002441406 38.10871124267578 89.29898071289062 38.83871078491211 88.84564971923828 39.47871398925781 C 88.39231872558594 40.11871337890625 87.7523193359375 40.622047424316406 86.92565155029297 40.988712310791016 C 89.02565002441406 44.12204360961914 90.39231872558594 46.14537811279297 91.02565002441406 47.058712005615234 L 87.74565124511719 47.058712005615234 L 84.4156494140625 41.70871353149414 L 82.84564971923828 41.70871353149414 ZM 120.26529693603516 33.11871337890625 L 123.24530029296875 33.11871337890625 L 118.50529479980469 47.058712005615234 L 115.2853012084961 47.058712005615234 L 110.5552978515625 33.11871337890625 L 113.54529571533203 33.11871337890625 L 116.16529846191406 41.40871047973633 C 116.31196594238281 41.90204620361328 116.46196746826172 42.475379943847656 116.61529541015625 43.12871170043945 C 116.76863098144531 43.7753791809082 116.86529541015625 44.22871398925781 116.9052963256836 44.488712310791016 C 116.97863006591797 43.90204620361328 117.2186279296875 42.8753776550293 117.62529754638672 41.40871047973633 L 120.26529693603516 33.11871337890625 ZM 144.52474975585938 47.058712005615234 L 144.52474975585938 33.11871337890625 L 147.48475646972656 33.11871337890625 L 147.48475646972656 47.058712005615234 L 144.52474975585938 47.058712005615234 ZM 176.44927978515625 35.37871170043945 C 175.33595275878906 35.37871170043945 174.47262573242188 35.795379638671875 173.85928344726562 36.62871170043945 C 173.25262451171875 37.468711853027344 172.94927978515625 38.635379791259766 172.94927978515625 40.12871170043945 C 172.94927978515625 43.23537826538086 174.11595153808594 44.78871154785156 176.44927978515625 44.78871154785156 C 177.42929077148438 44.78871154785156 178.6126251220703 44.545379638671875 179.99928283691406 44.058712005615234 L 179.99928283691406 46.53871154785156 C 178.85928344726562 47.012046813964844 177.58262634277344 47.24871063232422 176.16928100585938 47.24871063232422 C 174.1426239013672 47.24871063232422 172.59262084960938 46.635379791259766 171.519287109375 45.40871047973633 C 170.4392852783203 44.175376892089844 169.8992919921875 42.40871047973633 169.8992919921875 40.10871124267578 C 169.8992919921875 38.65538024902344 170.16595458984375 37.385379791259766 170.69927978515625 36.29871368408203 C 171.2259521484375 35.205379486083984 171.9826202392578 34.36871337890625 172.9692840576172 33.78871154785156 C 173.95594787597656 33.208709716796875 175.11595153808594 32.9187126159668 176.44927978515625 32.9187126159668 C 177.80262756347656 32.9187126159668 179.16262817382812 33.24537658691406 180.52928161621094 33.898712158203125 L 179.57928466796875 36.29871368408203 C 179.05262756347656 36.05204391479492 178.5259552001953 35.83538055419922 177.99928283691406 35.648712158203125 C 177.47262573242188 35.468711853027344 176.95594787597656 35.37871170043945 176.44927978515625 35.37871170043945 ZM 202.4908905029297 47.058712005615234 L 202.4908905029297 33.11871337890625 L 205.45089721679688 33.11871337890625 L 205.45089721679688 47.058712005615234 L 202.4908905029297 47.058712005615234 ZM 241.1454315185547 40.06871032714844 C 241.1454315185547 42.3753776550293 240.5720977783203 44.148712158203125 239.42543029785156 45.38871383666992 C 238.28543090820312 46.62871170043945 236.6454315185547 47.24871063232422 234.50543212890625 47.24871063232422 C 232.37210083007812 47.24871063232422 230.7321014404297 46.62871170043945 229.58543395996094 45.38871383666992 C 228.4387664794922 44.148712158203125 227.8654327392578 42.36871337890625 227.8654327392578 40.04871368408203 C 227.8654327392578 37.72871398925781 228.4420928955078 35.955379486083984 229.59542846679688 34.72871398925781 C 230.74209594726562 33.50871276855469 232.3854217529297 32.898712158203125 234.52542114257812 32.898712158203125 C 236.67208862304688 32.898712158203125 238.3120880126953 33.515380859375 239.4454345703125 34.74871063232422 C 240.57876586914062 35.9820442199707 241.1454315185547 37.75537872314453 241.1454315185547 40.06871032714844 M 230.96542358398438 40.06871032714844 C 230.96542358398438 41.62871170043945 231.26210021972656 42.80204391479492 231.8554229736328 43.58871078491211 C 232.44876098632812 44.3753776550293 233.33209228515625 44.76871109008789 234.50543212890625 44.76871109008789 C 236.8654327392578 44.76871109008789 238.04542541503906 43.20204544067383 238.04542541503906 40.06871032714844 C 238.04542541503906 36.9287109375 236.87210083007812 35.35871124267578 234.52542114257812 35.35871124267578 C 233.3520965576172 35.35871124267578 232.46542358398438 35.75537872314453 231.8654327392578 36.54871368408203 C 231.2654266357422 37.33538055419922 230.96542358398438 38.50871276855469 230.96542358398438 40.06871032714844 Z" transform="matrix(0.2849177122116089, 0, 0, 0.2849177122116089, -0.5297769904136658, 13.48867130279541)" style="fill: rgb(23, 46, 255); white-space: pre; color: rgb(23, 46, 255); stroke: rgb(23, 46, 255); paint-order: fill; -webkit-text-stroke: rgb(23, 46, 255);"/><path d="M 22.80237579345703 55.543190002441406 L 19.16237449645996 55.543190002441406 L 19.16237449645996 41.433189392089844 L 14.512373924255371 41.433189392089844 L 14.512373924255371 38.41319274902344 L 27.452373504638672 38.41319274902344 L 27.452373504638672 41.433189392089844 L 22.80237579345703 41.433189392089844 L 22.80237579345703 55.543190002441406 ZM 38.12748336791992 55.543190002441406 L 37.42748260498047 53.76319122314453 L 37.33748245239258 53.76319122314453 C 36.737483978271484 54.523189544677734 36.11748123168945 55.04652404785156 35.477481842041016 55.33319091796875 C 34.84415054321289 55.626522064208984 34.0141487121582 55.773189544677734 32.987483978271484 55.773189544677734 C 31.734149932861328 55.773189544677734 30.74414825439453 55.41652297973633 30.01748275756836 54.703189849853516 C 29.297483444213867 53.98318862915039 28.937482833862305 52.95985794067383 28.937482833862305 51.6331901550293 C 28.937482833862305 50.2398567199707 29.424148559570312 49.21318817138672 30.39748191833496 48.553192138671875 C 31.37081527709961 47.8931884765625 32.83748245239258 47.52652359008789 34.797481536865234 47.453189849853516 L 37.067481994628906 47.3831901550293 L 37.067481994628906 46.81319046020508 C 37.067481994628906 45.48652267456055 36.387481689453125 44.82318878173828 35.02748107910156 44.82318878173828 C 33.98081588745117 44.82318878173828 32.750816345214844 45.139854431152344 31.337482452392578 45.773189544677734 L 30.157482147216797 43.35319137573242 C 31.66415023803711 42.566524505615234 33.33414840698242 42.17319107055664 35.16748046875 42.17319107055664 C 36.92748260498047 42.17319107055664 38.27748107910156 42.556522369384766 39.21748352050781 43.32318878173828 C 40.15081787109375 44.08985900878906 40.61748123168945 45.25318908691406 40.61748123168945 46.81319046020508 L 40.61748123168945 55.543190002441406 L 38.12748336791992 55.543190002441406 M 37.067481994628906 49.47319030761719 L 35.68748474121094 49.523189544677734 C 34.647483825683594 49.54985809326172 33.874149322509766 49.73652267456055 33.36748123168945 50.08319091796875 C 32.860816955566406 50.42319107055664 32.60748291015625 50.9465217590332 32.60748291015625 51.65319061279297 C 32.60748291015625 52.659854888916016 33.18415069580078 53.16318893432617 34.33748245239258 53.16318893432617 C 35.16415023803711 53.16318893432617 35.827484130859375 52.9265251159668 36.327484130859375 52.453189849853516 C 36.82081604003906 51.97319030761719 37.067481994628906 51.3398551940918 37.067481994628906 50.553192138671875 L 37.067481994628906 49.47319030761719 ZM 47.870113372802734 55.543190002441406 L 44.300113677978516 55.543190002441406 L 44.300113677978516 37.31319046020508 L 47.870113372802734 37.31319046020508 L 47.870113372802734 55.543190002441406 ZM 55.19258117675781 55.543190002441406 L 51.622581481933594 55.543190002441406 L 51.622581481933594 37.31319046020508 L 55.19258117675781 37.31319046020508 L 55.19258117675781 55.543190002441406 ZM 64.36505126953125 44.74319076538086 C 63.60504913330078 44.74319076538086 63.011714935302734 44.98318862915039 62.58504867553711 45.46318817138672 C 62.158382415771484 45.94319152832031 61.91171646118164 46.623191833496094 61.84504699707031 47.50318908691406 L 66.86505126953125 47.50318908691406 C 66.84504699707031 46.623191833496094 66.61505126953125 45.94319152832031 66.175048828125 45.46318817138672 C 65.72837829589844 44.98318862915039 65.12504577636719 44.74319076538086 64.36505126953125 44.74319076538086 M 64.86505126953125 55.773189544677734 C 62.75838088989258 55.773189544677734 61.11171340942383 55.19319152832031 59.925048828125 54.0331916809082 C 58.738380432128906 52.86652374267578 58.145050048828125 51.216522216796875 58.145050048828125 49.08319091796875 C 58.145050048828125 46.889854431152344 58.691715240478516 45.19319152832031 59.78504943847656 43.99319076538086 C 60.885047912597656 42.793190002441406 62.40504837036133 42.19319152832031 64.34504699707031 42.19319152832031 C 66.19171142578125 42.19319152832031 67.6317138671875 42.71985626220703 68.66504669189453 43.773189544677734 C 69.69837951660156 44.83319091796875 70.21504974365234 46.293190002441406 70.21504974365234 48.15319061279297 L 70.21504974365234 49.8831901550293 L 61.76504898071289 49.8831901550293 C 61.80504608154297 50.896522521972656 62.10504913330078 51.689857482910156 62.66504669189453 52.26319122314453 C 63.23171615600586 52.829856872558594 64.02171325683594 53.113189697265625 65.03504943847656 53.113189697265625 C 65.82171630859375 53.113189697265625 66.5683822631836 53.0331916809082 67.2750473022461 52.873191833496094 C 67.97505187988281 52.70652389526367 68.70838165283203 52.44319152832031 69.47505187988281 52.08319091796875 L 69.47505187988281 54.85319137573242 C 68.84838104248047 55.16652297973633 68.18171691894531 55.39985656738281 67.47505187988281 55.55318832397461 C 66.76171875 55.69985580444336 65.89171600341797 55.773189544677734 64.86505126953125 55.773189544677734 ZM 80.43134307861328 42.19319152832031 C 80.91133880615234 42.19319152832031 81.31134033203125 42.2298583984375 81.63134002685547 42.303192138671875 L 81.371337890625 45.65319061279297 C 81.07801055908203 45.57318878173828 80.72467041015625 45.53318786621094 80.31134033203125 45.53318786621094 C 79.17134094238281 45.53318786621094 78.28134155273438 45.82652282714844 77.64134216308594 46.41318893432617 C 77.00801086425781 46.999855041503906 76.69133758544922 47.819854736328125 76.69133758544922 48.873191833496094 L 76.69133758544922 55.543190002441406 L 73.121337890625 55.543190002441406 L 73.121337890625 42.44319152832031 L 75.82134246826172 42.44319152832031 L 76.3513412475586 44.6431884765625 L 76.53134155273438 44.6431884765625 C 76.93134307861328 43.90985870361328 77.4780044555664 43.319854736328125 78.17134094238281 42.873191833496094 C 78.86467742919922 42.419857025146484 79.61801147460938 42.19319152832031 80.43134307861328 42.19319152832031 ZM 100.39004516601562 55.543190002441406 L 90.53004455566406 55.543190002441406 L 90.53004455566406 38.41319274902344 L 100.39004516601562 38.41319274902344 L 100.39004516601562 41.3831901550293 L 94.16004180908203 41.3831901550293 L 94.16004180908203 45.15319061279297 L 99.96003723144531 45.15319061279297 L 99.96003723144531 48.123191833496094 L 94.16004180908203 48.123191833496094 L 94.16004180908203 52.543190002441406 L 100.39004516601562 52.543190002441406 L 100.39004516601562 55.543190002441406 ZM 112.82823181152344 51.65319061279297 C 112.82823181152344 52.99319076538086 112.361572265625 54.01652526855469 111.42823791503906 54.72319030761719 C 110.48823547363281 55.42319107055664 109.09156799316406 55.773189544677734 107.23823547363281 55.773189544677734 C 106.28490447998047 55.773189544677734 105.47156524658203 55.70985794067383 104.79823303222656 55.58319091796875 C 104.1249008178711 55.45652389526367 103.49490356445312 55.26652145385742 102.90823364257812 55.01319122314453 L 102.90823364257812 52.06319046020508 C 103.57490539550781 52.376522064208984 104.32490539550781 52.63652420043945 105.15823364257812 52.84318923950195 C 105.98490142822266 53.056522369384766 106.71490478515625 53.16318893432617 107.34823608398438 53.16318893432617 C 108.64823913574219 53.16318893432617 109.29823303222656 52.78985595703125 109.29823303222656 52.043190002441406 C 109.29823303222656 51.75652313232422 109.2115707397461 51.52652359008789 109.03823852539062 51.35319137573242 C 108.86489868164062 51.17985534667969 108.5682373046875 50.9798583984375 108.14823913574219 50.75318908691406 C 107.72823333740234 50.53318786621094 107.16490173339844 50.273189544677734 106.45823669433594 49.97319030761719 C 105.45156860351562 49.553192138671875 104.7115707397461 49.16318893432617 104.23823547363281 48.803192138671875 C 103.76490020751953 48.44319152832031 103.42156982421875 48.03318786621094 103.20823669433594 47.57318878173828 C 102.99490356445312 47.10652160644531 102.88823699951172 46.53318786621094 102.88823699951172 45.85319137573242 C 102.88823699951172 44.6865234375 103.3382339477539 43.786521911621094 104.23823547363281 43.15319061279297 C 105.14490509033203 42.51319122314453 106.4249038696289 42.19319152832031 108.07823181152344 42.19319152832031 C 109.65823364257812 42.19319152832031 111.19490051269531 42.536521911621094 112.688232421875 43.22319030761719 L 111.60823822021484 45.803192138671875 C 110.94823455810547 45.523189544677734 110.33489990234375 45.293190002441406 109.76823425292969 45.113189697265625 C 109.19490051269531 44.933189392089844 108.611572265625 44.84318923950195 108.01823425292969 44.84318923950195 C 106.96490478515625 44.84318923950195 106.438232421875 45.12985610961914 106.438232421875 45.703189849853516 C 106.438232421875 46.023189544677734 106.60823822021484 46.29985809326172 106.94823455810547 46.53318786621094 C 107.28823852539062 46.76652526855469 108.03157043457031 47.113189697265625 109.17823791503906 47.57318878173828 C 110.20490264892578 47.98652267456055 110.95490264892578 48.373191833496094 111.42823791503906 48.73318862915039 C 111.90823364257812 49.09318923950195 112.26156616210938 49.50652313232422 112.48823547363281 49.97319030761719 C 112.71490478515625 50.4465217590332 112.82823181152344 51.00652313232422 112.82823181152344 51.65319061279297 ZM 122.80506896972656 55.773189544677734 C 121.26506805419922 55.773189544677734 120.05840301513672 55.216522216796875 119.18506622314453 54.10319137573242 L 118.99507141113281 54.10319137573242 C 119.12173461914062 55.1965217590332 119.18506622314453 55.829856872558594 119.18506622314453 56.00318908691406 L 119.18506622314453 61.31319046020508 L 115.61506652832031 61.31319046020508 L 115.61506652832031 42.44319152832031 L 118.51506805419922 42.44319152832031 L 119.02507019042969 44.1431884765625 L 119.18506622314453 44.1431884765625 C 120.01840209960938 42.84318923950195 121.25506591796875 42.19319152832031 122.89506530761719 42.19319152832031 C 124.44173431396484 42.19319152832031 125.65506744384766 42.793190002441406 126.53507232666016 43.99319076538086 C 127.40840148925781 45.1865234375 127.8450698852539 46.84652328491211 127.8450698852539 48.97319030761719 C 127.8450698852539 50.36652374267578 127.6384048461914 51.579856872558594 127.22506713867188 52.613189697265625 C 126.81840515136719 53.646522521972656 126.23506927490234 54.433189392089844 125.47506713867188 54.97319030761719 C 124.72173309326172 55.50652313232422 123.83173370361328 55.773189544677734 122.80506896972656 55.773189544677734 M 121.75506591796875 45.053192138671875 C 120.86840057373047 45.053192138671875 120.22173309326172 45.32652282714844 119.81507110595703 45.873191833496094 C 119.40840148925781 46.41318893432617 119.19840240478516 47.30985641479492 119.18506622314453 48.56319046020508 L 119.18506622314453 48.94319152832031 C 119.18506622314453 50.349857330322266 119.39506530761719 51.35985565185547 119.81507110595703 51.97319030761719 C 120.22840118408203 52.579856872558594 120.8884048461914 52.8831901550293 121.7950668334961 52.8831901550293 C 123.39506530761719 52.8831901550293 124.195068359375 51.56319046020508 124.195068359375 48.92319107055664 C 124.195068359375 47.63652420043945 123.99840545654297 46.669857025146484 123.60507202148438 46.023189544677734 C 123.21173858642578 45.376522064208984 122.5950698852539 45.053192138671875 121.75506591796875 45.053192138671875 ZM 136.21893310546875 44.74319076538086 C 135.45892333984375 44.74319076538086 134.8656005859375 44.98318862915039 134.43893432617188 45.46318817138672 C 134.01226806640625 45.94319152832031 133.76559448242188 46.623191833496094 133.6989288330078 47.50318908691406 L 138.71893310546875 47.50318908691406 C 138.6989288330078 46.623191833496094 138.46893310546875 45.94319152832031 138.0289306640625 45.46318817138672 C 137.58226013183594 44.98318862915039 136.9789276123047 44.74319076538086 136.21893310546875 44.74319076538086 M 136.71893310546875 55.773189544677734 C 134.6122589111328 55.773189544677734 132.96559143066406 55.19319152832031 131.7789306640625 54.0331916809082 C 130.59226989746094 52.86652374267578 129.99893188476562 51.216522216796875 129.99893188476562 49.08319091796875 C 129.99893188476562 46.889854431152344 130.54559326171875 45.19319152832031 131.63893127441406 43.99319076538086 C 132.7389373779297 42.793190002441406 134.25892639160156 42.19319152832031 136.1989288330078 42.19319152832031 C 138.04559326171875 42.19319152832031 139.485595703125 42.71985626220703 140.51893615722656 43.773189544677734 C 141.55226135253906 44.83319091796875 142.0689239501953 46.293190002441406 142.0689239501953 48.15319061279297 L 142.0689239501953 49.8831901550293 L 133.61892700195312 49.8831901550293 C 133.658935546875 50.896522521972656 133.95892333984375 51.689857482910156 134.51893615722656 52.26319122314453 C 135.08560180664062 52.829856872558594 135.87559509277344 53.113189697265625 136.88893127441406 53.113189697265625 C 137.67559814453125 53.113189697265625 138.42225646972656 53.0331916809082 139.12893676757812 52.873191833496094 C 139.8289337158203 52.70652389526367 140.562255859375 52.44319152832031 141.3289337158203 52.08319091796875 L 141.3289337158203 54.85319137573242 C 140.7022705078125 55.16652297973633 140.0355987548828 55.39985656738281 139.3289337158203 55.55318832397461 C 138.6156005859375 55.69985580444336 137.74559020996094 55.773189544677734 136.71893310546875 55.773189544677734 ZM 150.29522705078125 55.773189544677734 C 146.21522521972656 55.773189544677734 144.17523193359375 53.536521911621094 144.17523193359375 49.06319046020508 C 144.17523193359375 46.836524963378906 144.7285614013672 45.13652420043945 145.83523559570312 43.96318817138672 C 146.9485626220703 42.78318786621094 148.53855895996094 42.19319152832031 150.605224609375 42.19319152832031 C 152.12522888183594 42.19319152832031 153.4852294921875 42.4898567199707 154.6852264404297 43.08319091796875 L 153.63522338867188 45.85319137573242 C 153.0685577392578 45.626522064208984 152.54190063476562 45.439857482910156 152.05523681640625 45.293190002441406 C 151.57522583007812 45.15319061279297 151.09190368652344 45.08319091796875 150.605224609375 45.08319091796875 C 148.74522399902344 45.08319091796875 147.8152313232422 46.40319061279297 147.8152313232422 49.043190002441406 C 147.8152313232422 51.60319137573242 148.74522399902344 52.8831901550293 150.605224609375 52.8831901550293 C 151.29190063476562 52.8831901550293 151.92855834960938 52.78985595703125 152.51522827148438 52.60319137573242 C 153.10189819335938 52.42319107055664 153.68856811523438 52.13652420043945 154.27523803710938 51.74319076538086 L 154.27523803710938 54.80318832397461 C 153.6952362060547 55.169857025146484 153.1118927001953 55.42319107055664 152.52523803710938 55.56319046020508 C 151.93190002441406 55.703189849853516 151.18856811523438 55.773189544677734 150.29522705078125 55.773189544677734 ZM 157.15213012695312 39.053192138671875 C 157.15213012695312 37.8931884765625 157.8021240234375 37.31319046020508 159.1021270751953 37.31319046020508 C 160.3954620361328 37.31319046020508 161.04212951660156 37.8931884765625 161.04212951660156 39.053192138671875 C 161.04212951660156 39.60652160644531 160.8821258544922 40.03985595703125 160.5621337890625 40.35319137573242 C 160.23545837402344 40.65985870361328 159.74879455566406 40.81319046020508 159.1021270751953 40.81319046020508 C 157.8021240234375 40.81319046020508 157.15213012695312 40.226524353027344 157.15213012695312 39.053192138671875 M 160.8821258544922 55.543190002441406 L 157.3121337890625 55.543190002441406 L 157.3121337890625 42.44319152832031 L 160.8821258544922 42.44319152832031 L 160.8821258544922 55.543190002441406 ZM 172.95458984375 55.543190002441406 L 172.2545928955078 53.76319122314453 L 172.1645965576172 53.76319122314453 C 171.56459045410156 54.523189544677734 170.94459533691406 55.04652404785156 170.30459594726562 55.33319091796875 C 169.6712646484375 55.626522064208984 168.8412628173828 55.773189544677734 167.81459045410156 55.773189544677734 C 166.56126403808594 55.773189544677734 165.57125854492188 55.41652297973633 164.84458923339844 54.703189849853516 C 164.1245880126953 53.98318862915039 163.76458740234375 52.95985794067383 163.76458740234375 51.6331901550293 C 163.76458740234375 50.2398567199707 164.2512664794922 49.21318817138672 165.22459411621094 48.553192138671875 C 166.1979217529297 47.8931884765625 167.6645965576172 47.52652359008789 169.6245880126953 47.453189849853516 L 171.89459228515625 47.3831901550293 L 171.89459228515625 46.81319046020508 C 171.89459228515625 45.48652267456055 171.214599609375 44.82318878173828 169.85459899902344 44.82318878173828 C 168.80792236328125 44.82318878173828 167.5779266357422 45.139854431152344 166.1645965576172 45.773189544677734 L 164.98458862304688 43.35319137573242 C 166.4912567138672 42.566524505615234 168.1612548828125 42.17319107055664 169.99459838867188 42.17319107055664 C 171.7545928955078 42.17319107055664 173.10459899902344 42.556522369384766 174.04458618164062 43.32318878173828 C 174.97792053222656 44.08985900878906 175.44459533691406 45.25318908691406 175.44459533691406 46.81319046020508 L 175.44459533691406 55.543190002441406 L 172.95458984375 55.543190002441406 M 171.89459228515625 49.47319030761719 L 170.51458740234375 49.523189544677734 C 169.47459411621094 49.54985809326172 168.70126342773438 49.73652267456055 168.19459533691406 50.08319091796875 C 167.68792724609375 50.42319107055664 167.43458557128906 50.9465217590332 167.43458557128906 51.65319061279297 C 167.43458557128906 52.659854888916016 168.01126098632812 53.16318893432617 169.1645965576172 53.16318893432617 C 169.9912567138672 53.16318893432617 170.6545867919922 52.9265251159668 171.1545867919922 52.453189849853516 C 171.64791870117188 51.97319030761719 171.89459228515625 51.3398551940918 171.89459228515625 50.553192138671875 L 171.89459228515625 49.47319030761719 ZM 182.6972198486328 55.543190002441406 L 179.12722778320312 55.543190002441406 L 179.12722778320312 37.31319046020508 L 182.6972198486328 37.31319046020508 L 182.6972198486328 55.543190002441406 ZM 186.28970336914062 39.053192138671875 C 186.28970336914062 37.8931884765625 186.939697265625 37.31319046020508 188.2397003173828 37.31319046020508 C 189.5330352783203 37.31319046020508 190.17970275878906 37.8931884765625 190.17970275878906 39.053192138671875 C 190.17970275878906 39.60652160644531 190.0196990966797 40.03985595703125 189.69970703125 40.35319137573242 C 189.37303161621094 40.65985870361328 188.88636779785156 40.81319046020508 188.2397003173828 40.81319046020508 C 186.939697265625 40.81319046020508 186.28970336914062 40.226524353027344 186.28970336914062 39.053192138671875 M 190.0196990966797 55.543190002441406 L 186.44970703125 55.543190002441406 L 186.44970703125 42.44319152832031 L 190.0196990966797 42.44319152832031 L 190.0196990966797 55.543190002441406 ZM 202.88218688964844 55.543190002441406 L 192.5321807861328 55.543190002441406 L 192.5321807861328 53.433189392089844 L 198.60218811035156 45.17319107055664 L 192.9021759033203 45.17319107055664 L 192.9021759033203 42.44319152832031 L 202.67218017578125 42.44319152832031 L 202.67218017578125 44.76319122314453 L 196.77218627929688 52.81319046020508 L 202.88218688964844 52.81319046020508 L 202.88218688964844 55.543190002441406 ZM 213.79641723632812 55.543190002441406 L 213.09642028808594 53.76319122314453 L 213.0064239501953 53.76319122314453 C 212.4064178466797 54.523189544677734 211.7864227294922 55.04652404785156 211.14642333984375 55.33319091796875 C 210.51309204101562 55.626522064208984 209.68309020996094 55.773189544677734 208.6564178466797 55.773189544677734 C 207.40309143066406 55.773189544677734 206.4130859375 55.41652297973633 205.68641662597656 54.703189849853516 C 204.96641540527344 53.98318862915039 204.60641479492188 52.95985794067383 204.60641479492188 51.6331901550293 C 204.60641479492188 50.2398567199707 205.0930938720703 49.21318817138672 206.06642150878906 48.553192138671875 C 207.0397491455078 47.8931884765625 208.5064239501953 47.52652359008789 210.46641540527344 47.453189849853516 L 212.73641967773438 47.3831901550293 L 212.73641967773438 46.81319046020508 C 212.73641967773438 45.48652267456055 212.05642700195312 44.82318878173828 210.69642639160156 44.82318878173828 C 209.64974975585938 44.82318878173828 208.4197540283203 45.139854431152344 207.0064239501953 45.773189544677734 L 205.826416015625 43.35319137573242 C 207.3330841064453 42.566524505615234 209.00308227539062 42.17319107055664 210.83642578125 42.17319107055664 C 212.59642028808594 42.17319107055664 213.94642639160156 42.556522369384766 214.88641357421875 43.32318878173828 C 215.8197479248047 44.08985900878906 216.2864227294922 45.25318908691406 216.2864227294922 46.81319046020508 L 216.2864227294922 55.543190002441406 L 213.79641723632812 55.543190002441406 M 212.73641967773438 49.47319030761719 L 211.35641479492188 49.523189544677734 C 210.31642150878906 49.54985809326172 209.5430908203125 49.73652267456055 209.0364227294922 50.08319091796875 C 208.52975463867188 50.42319107055664 208.2764129638672 50.9465217590332 208.2764129638672 51.65319061279297 C 208.2764129638672 52.659854888916016 208.85308837890625 53.16318893432617 210.0064239501953 53.16318893432617 C 210.8330841064453 53.16318893432617 211.4964141845703 52.9265251159668 211.9964141845703 52.453189849853516 C 212.48974609375 51.97319030761719 212.73641967773438 51.3398551940918 212.73641967773438 50.553192138671875 L 212.73641967773438 49.47319030761719 ZM 224.1090545654297 55.773189544677734 C 222.5690460205078 55.773189544677734 221.3623809814453 55.1765251159668 220.48904418945312 53.98318862915039 C 219.6090545654297 52.78985595703125 219.16905212402344 51.1331901550293 219.16905212402344 49.01319122314453 C 219.16905212402344 46.86652374267578 219.61572265625 45.19319152832031 220.50904846191406 43.99319076538086 C 221.4023895263672 42.793190002441406 222.63571166992188 42.19319152832031 224.20904541015625 42.19319152832031 C 225.855712890625 42.19319152832031 227.1123809814453 42.83319091796875 227.9790496826172 44.113189697265625 L 228.0990447998047 44.113189697265625 C 227.91905212402344 43.139854431152344 227.8290557861328 42.26985549926758 227.8290557861328 41.50318908691406 L 227.8290557861328 37.31319046020508 L 231.4090576171875 37.31319046020508 L 231.4090576171875 55.543190002441406 L 228.66905212402344 55.543190002441406 L 227.9790496826172 53.84318923950195 L 227.8290557861328 53.84318923950195 C 227.01571655273438 55.12985610961914 225.7757110595703 55.773189544677734 224.1090545654297 55.773189544677734 M 225.36904907226562 52.933189392089844 C 226.28237915039062 52.933189392089844 226.95237731933594 52.66652297973633 227.37904357910156 52.1331901550293 C 227.8057098388672 51.599857330322266 228.0357208251953 50.6965217590332 228.0690460205078 49.42319107055664 L 228.0690460205078 49.043190002441406 C 228.0690460205078 47.63652420043945 227.85238647460938 46.626522064208984 227.41905212402344 46.01319122314453 C 226.9857177734375 45.406524658203125 226.28237915039062 45.10319137573242 225.30905151367188 45.10319137573242 C 224.50904846191406 45.10319137573242 223.88905334472656 45.439857482910156 223.4490509033203 46.113189697265625 C 223.00904846191406 46.793190002441406 222.78904724121094 47.77652359008789 222.78904724121094 49.06319046020508 C 222.78904724121094 50.349857330322266 223.01239013671875 51.316524505615234 223.45904541015625 51.96318817138672 C 223.9057159423828 52.60985565185547 224.54238891601562 52.933189392089844 225.36904907226562 52.933189392089844 ZM 237.992919921875 48.97319030761719 C 237.992919921875 50.26652526855469 238.2062530517578 51.246524810791016 238.63291931152344 51.91318893432617 C 239.05958557128906 52.57318878173828 239.75291442871094 52.90319061279297 240.71292114257812 52.90319061279297 C 241.666259765625 52.90319061279297 242.35292053222656 52.57318878173828 242.77291870117188 51.91318893432617 C 243.1929168701172 51.25318908691406 243.40292358398438 50.273189544677734 243.40292358398438 48.97319030761719 C 243.40292358398438 47.67319107055664 243.18959045410156 46.69985580444336 242.76292419433594 46.053192138671875 C 242.34292602539062 45.406524658203125 241.65292358398438 45.08319091796875 240.6929168701172 45.08319091796875 C 239.7395782470703 45.08319091796875 239.05291748046875 45.40319061279297 238.63291931152344 46.043190002441406 C 238.2062530517578 46.689857482910156 237.992919921875 47.66652297973633 237.992919921875 48.97319030761719 M 247.05291748046875 48.97319030761719 C 247.05291748046875 51.099857330322266 246.4895782470703 52.76652526855469 245.3629150390625 53.97319030761719 C 244.242919921875 55.17319107055664 242.67625427246094 55.773189544677734 240.6629180908203 55.773189544677734 C 239.4095916748047 55.773189544677734 238.30291748046875 55.499855041503906 237.34292602539062 54.953189849853516 C 236.38291931152344 54.39985656738281 235.64291381835938 53.60985565185547 235.1229248046875 52.58319091796875 C 234.60958862304688 51.54985809326172 234.35292053222656 50.34652328491211 234.35292053222656 48.97319030761719 C 234.35292053222656 46.82652282714844 234.9095916748047 45.15985870361328 236.02291870117188 43.97319030761719 C 237.14291381835938 42.786521911621094 238.71292114257812 42.19319152832031 240.73292541503906 42.19319152832031 C 241.992919921875 42.19319152832031 243.10292053222656 42.466522216796875 244.0629119873047 43.01319122314453 C 245.02291870117188 43.55985641479492 245.76292419433594 44.34652328491211 246.2829132080078 45.373191833496094 C 246.79624938964844 46.3931884765625 247.05291748046875 47.59318923950195 247.05291748046875 48.97319030761719 Z" transform="matrix(0.2740456759929657, 0, 0, 0.2740456759929657, 0.1524968445301056, 19.096126556396484)" style="fill: rgb(51, 51, 51); white-space: pre; color: rgb(51, 51, 51);"/></svg>